<svg viewBox="0 0 758 225" fill="none" xmlns="http://www.w3.org/2000/svg" xmlns:xlink="http://www.w3.org/1999/xlink">
  <path d="M319.8 60.801c8.6 4.4 15.3 10.8 20 19 4.7 8.2 7.1 17.7 7.1 28.6 0 10.9-2.4 20.3-7.1 28.4-4.7 8.1-11.4 14.4-20 18.8s-18.6 6.7-30 6.7H252v-108.1h37.8c11.4 0 21.4 2.2 30 6.6Zm-4.4 73.8c6.2-6.2 9.3-14.9 9.3-26.2 0-11.3-3.1-20.1-9.3-26.4-6.2-6.4-15-9.5-26.3-9.5h-15.3v71.5h15.3c11.3-.1 20.1-3.2 26.3-9.4ZM442.3 125.901h-62.8c.5 6.2 2.7 11.1 6.5 14.6s8.5 5.3 14.1 5.3c8.1 0 13.8-3.5 17.2-10.4h23.4c-2.5 8.3-7.2 15.1-14.3 20.4-7 5.3-15.7 8-25.9 8-8.3 0-15.7-1.8-22.2-5.5-6.6-3.7-11.7-8.9-15.3-15.6-3.7-6.7-5.5-14.5-5.5-23.2 0-8.9 1.8-16.7 5.4-23.4 3.6-6.7 8.7-11.9 15.2-15.5 6.5-3.6 14-5.4 22.5-5.4 8.2 0 15.5 1.8 21.9 5.3 6.5 3.5 11.5 8.5 15 15 3.6 6.5 5.3 13.9 5.3 22.2.2 2.9 0 5.7-.5 8.2Zm-21.8-14.6c-.1-5.6-2.1-10-6-13.4-3.9-3.4-8.7-5-14.4-5-5.4 0-9.9 1.6-13.6 4.9-3.7 3.3-5.9 7.8-6.7 13.6l40.7-.1ZM491.401 79.101c4.5-2.6 9.6-3.9 15.4-3.9v22.8h-5.7c-6.8 0-12 1.6-15.4 4.8-3.5 3.2-5.2 8.8-5.2 16.7v42.8h-21.7v-85.8h21.7v13.3c2.8-4.5 6.4-8.1 10.9-10.7ZM522.9 62.6c-2.5-2.4-3.8-5.4-3.8-9.1 0-3.6 1.3-6.6 3.8-9.1 2.5-2.4 5.7-3.6 9.5-3.6s7 1.2 9.5 3.6c2.5 2.4 3.8 5.5 3.8 9.1 0 3.6-1.3 6.6-3.8 9.1-2.5 2.4-5.7 3.6-9.5 3.6s-7-1.2-9.5-3.6Zm20.2 13.9v85.901h-21.7v-85.9h21.7ZM597.7 79.002c4.9-2.6 10.5-3.9 16.8-3.9 7.3 0 14 1.8 19.9 5.4 5.9 3.6 10.6 8.8 14.1 15.4 3.5 6.7 5.2 14.4 5.2 23.2 0 8.8-1.7 16.6-5.2 23.3-3.5 6.8-8.2 12-14.1 15.7-5.9 3.7-12.6 5.6-19.9 5.6-6.4 0-12-1.3-16.8-3.8-4.8-2.5-8.7-5.8-11.5-9.8v12.2h-21.7v-114.7h21.7v41.4c2.8-4.1 6.6-7.5 11.5-10Zm30.7 26.7c-2.1-3.8-4.9-6.6-8.4-8.6s-7.2-2.9-11.2-2.9c-3.9 0-7.6 1-11.1 3s-6.3 4.9-8.4 8.8c-2.1 3.8-3.2 8.3-3.2 13.5 0 5.2 1.1 9.7 3.2 13.5 2.1 3.8 4.9 6.7 8.4 8.8 3.5 2 7.2 3 11.1 3 4 0 7.8-1 11.2-3.1 3.5-2.1 6.3-5 8.4-8.8 2.1-3.8 3.2-8.4 3.2-13.6 0-5.4-1.1-9.8-3.2-13.6ZM670.999 62.6c-2.5-2.4-3.8-5.4-3.8-9.1 0-3.6 1.3-6.6 3.8-9.1 2.5-2.4 5.7-3.6 9.5-3.6s7 1.2 9.5 3.6c2.5 2.4 3.8 5.5 3.8 9.1 0 3.6-1.3 6.6-3.8 9.1-2.5 2.4-5.7 3.6-9.5 3.6-3.7 0-6.9-1.2-9.5-3.6Zm20.3 13.9v85.901h-21.7v-85.9h21.7ZM737.9 94.301v41.5c0 2.9.7 5 2.1 6.3 1.4 1.3 3.7 1.9 7.1 1.9h10.1v18.3h-13.6c-18.3 0-27.4-8.9-27.4-26.7v-41.3H706v-17.8h10.2v-21.3h21.9v21.2h19.2v17.8h-19.4v.1ZM472.45 214v-37.1h6.5v14.7h.05c1.55-2.75 4.2-4.5 8.2-4.5 7.5 0 11.45 6.45 11.45 13.8 0 7.4-3.9 13.8-11.45 13.8-4.3 0-7.05-1.95-8.55-5.1h-.05v4.4h-6.15Zm19.65-11.9v-2.3c0-4.65-2.9-7.3-6.55-7.3s-6.6 2.75-6.6 7.3v2.3c0 4.55 2.95 7.3 6.6 7.3 3.65 0 6.55-2.65 6.55-7.3Zm21.954 14c-2.05 5.45-4.95 7.45-10.15 7.45h-5.55v-5.25h5.25c2.05 0 2.95-.5 3.85-2.8l.8-2.25-10.15-25.45h7.2l6.4 18.1h.05l6.3-18.1h6.55l-10.55 28.3Z" fill="#000"/>
  <path d="M36 180H0v-36h36V72H0V36h36V0h36v36h36V0h36v36c39.8 0 72 32.2 72 72s-32.2 72-72 72v36h-36v-36H72v36H36v-36Zm36-36h72c19.9 0 36-16.1 36-36s-16.1-36-36-36H72v72Z" fill="#0052FF"/>
  <path d="M656.528 187.173a11.18 11.18 0 0 0-8.747 4.023V176h-6.437v39.419h6.333v-3.665a11.174 11.174 0 0 0 8.851 4.186c7.726 0 13.568-6.115 13.568-14.376 0-8.26-5.953-14.391-13.568-14.391Zm-.968 22.846c-4.612 0-7.995-3.598-7.995-8.425 0-4.827 3.412-8.462 8.047-8.462 4.634 0 7.942 3.591 7.942 8.469 0 4.879-3.383 8.403-7.994 8.403v.015Zm-107.178-16.887a7.326 7.326 0 0 1 7.078 5.214h6.81c-1.229-6.651-6.706-11.173-13.836-11.173a14.172 14.172 0 0 0-10.28 4.135 14.159 14.159 0 0 0-4.152 10.271c0 8.261 6.169 14.376 14.432 14.376 6.974 0 12.555-4.469 13.784-11.173h-6.758a7.263 7.263 0 0 1-7.026 5.259c-4.671 0-7.942-3.598-7.942-8.425 0-4.826 3.196-8.484 7.89-8.484Zm148.648 4.075c0-6.004-3.651-10.026-11.377-10.026-7.295 0-11.37 3.724-12.175 9.385h6.386c.32-2.235 2.034-4.022 5.684-4.022 3.271 0 4.881 1.445 4.881 3.218 0 2.301-2.981 2.89-6.594 3.27-4.94.536-11.057 2.234-11.057 8.685 0 4.991 3.725 8.194 9.604 8.194 4.612 0 7.51-1.93 8.941-4.991.208 2.734 2.235 4.506 5.096 4.506h3.725v-5.735h-3.166l.052-12.484Zm-6.333 6.972c0 3.724-3.219 6.436-7.131 6.436-2.414 0-4.47-1.021-4.47-3.166 0-2.734 3.271-3.486 6.274-3.807 3.002-.32 4.47-.908 5.312-2.145l.015 2.682Zm-95.376-10.749h4.023v21.989h6.438v-27.724h-10.431l-.03 5.735Zm30.63-6.257c-4.188 0-6.922 1.713-8.531 4.127v-3.605h-6.386v27.724h6.415V200.35c0-4.238 2.705-7.218 6.706-7.218 3.725 0 6.005 2.63 6.005 6.436v15.851h6.438v-16.328c-.03-7.002-3.621-11.918-10.647-11.918Zm-23.403-10.905a3.988 3.988 0 0 0-2.946 1.147 3.99 3.99 0 0 0-1.189 2.928 4.132 4.132 0 0 0 4.131 3.958 4.132 4.132 0 0 0 4.132-3.958 3.994 3.994 0 0 0-1.185-2.928 3.98 3.98 0 0 0-2.943-1.147Zm-23.536 10.905a14.172 14.172 0 0 0-13.431 8.84 14.146 14.146 0 0 0-1.031 5.566c0 8.261 6.169 14.376 14.432 14.376a14.165 14.165 0 0 0 10.376-4.093 14.152 14.152 0 0 0 4.19-10.335c0-8.149-6.169-14.354-14.536-14.354Zm.052 22.846c-4.612 0-7.995-3.598-7.995-8.425 0-4.827 3.331-8.462 7.943-8.462s8.046 3.643 8.046 8.469c0 4.827-3.382 8.403-7.994 8.403v.015Zm164.368-22.846c-8.262 0-14.327 6.22-14.327 14.421 0 8.641 6.497 14.376 14.432 14.376 6.705 0 11.965-3.97 13.307-9.601h-6.706c-.969 2.465-3.33 3.866-6.49 3.866-4.135 0-7.242-2.578-7.942-7.084H757v-2.481c0-7.94-5.789-13.497-13.568-13.497Zm-7.353 11.367c1.02-3.858 3.919-5.736 7.242-5.736 3.65 0 6.437 2.086 7.085 5.736h-14.327Zm-18.448.372-4.724-.692c-2.235-.321-3.859-1.073-3.859-2.846 0-1.929 2.086-2.897 4.932-2.897 3.114 0 5.096 1.341 5.528 3.545h6.222c-.701-5.579-4.992-8.849-11.586-8.849-6.817 0-11.325 3.486-11.325 8.417 0 4.723 2.98 7.449 8.941 8.313l4.716.7c2.31.321 3.599 1.229 3.599 2.98 0 2.197-2.236 3.106-5.365 3.106-3.815 0-5.96-1.557-6.281-3.911h-6.325c.588 5.416 4.828 9.222 12.547 9.222 7.033 0 11.697-3.218 11.697-8.745-.03-4.976-3.412-7.553-8.717-8.357v.014Z" fill="#000"/>
</svg>
