<svg width="1000" height="288" viewBox="0 0 1000 288" fill="none" xmlns="http://www.w3.org/2000/svg">
<mask id="mask0_5275_22341" style="mask-type:luminance" maskUnits="userSpaceOnUse" x="0" y="0" width="256" height="288">
<mask id="mask1_5275_22341" style="mask-type:luminance" maskUnits="userSpaceOnUse" x="0" y="0" width="256" height="288">
<path d="M115.959 3.00675C123.153 -1.00225 131.94 -1.00225 139.958 3.00675L243.917 62.9769C251.111 66.9859 255.917 74.9765 255.917 83.7633V203.704C255.917 212.491 251.111 219.685 243.917 224.49L139.958 284.46C132.764 288.469 123.977 288.469 115.959 284.46L11.9995 224.49C4.80529 220.481 0 212.491 0 203.704V83.7633C0 74.9765 4.80529 67.7822 11.9995 62.9769L115.959 3.00675Z" fill="white"/>
</mask>
<g mask="url(#mask1_5275_22341)">
<path d="M115.959 3.00675C123.153 -1.00225 131.94 -1.00225 139.958 3.00675L243.917 62.9769C251.111 66.9859 255.917 74.9765 255.917 83.7633V203.704C255.917 212.491 251.111 219.685 243.917 224.49L139.958 284.46C132.764 288.469 123.977 288.469 115.959 284.46L11.9995 224.49C4.80529 220.481 0 212.491 0 203.704V83.7633C0 74.9765 4.80529 67.7822 11.9995 62.9769L115.959 3.00675Z" fill="white"/>
</g>
</mask>
<g mask="url(#mask0_5275_22341)">
<path d="M115.961 3.00675C123.155 -1.00225 131.942 -1.00225 139.96 3.00675L243.919 62.9769C251.113 66.9859 255.919 74.9765 255.919 83.7633V203.704C255.919 212.491 251.113 219.685 243.919 224.49L139.96 284.46C132.766 288.469 123.979 288.469 115.961 284.46L12.0015 224.49C4.80724 220.481 0.00195312 212.491 0.00195312 203.704V83.7633C0.00195312 74.9765 4.80724 67.7822 12.0015 62.9769L115.961 3.00675Z" fill="#00B9E1"/>
<path d="M115.961 3.00675C123.155 -1.00225 131.942 -1.00225 139.96 3.00675L243.919 62.9769C251.113 66.9859 255.919 74.9765 255.919 83.7633V203.704C255.919 212.491 251.113 219.685 243.919 224.49L139.96 284.46C132.766 288.469 123.979 288.469 115.961 284.46L12.0015 224.49C4.80724 220.481 0.00195312 212.491 0.00195312 203.704V83.7633C0.00195312 74.9765 4.80724 67.7822 12.0015 62.9769L115.961 3.00675Z" fill="#26C3EF"/>
<path d="M138.368 134.15C187.135 41.3939 321.491 65.393 382.258 89.3646V347.643H-91.9297V215.703H-90.3371C21.6128 238.878 77.574 250.081 138.34 134.15H138.368Z" fill="url(#paint0_linear_5275_22341)"/>
<path opacity="0.7" d="M127.163 133.327C78.3962 40.5708 -55.9601 64.5699 -116.727 88.5415V346.82H357.433V214.88H355.841C243.891 237.259 187.93 248.462 127.163 133.327Z" fill="url(#paint1_linear_5275_22341)"/>
</g>
<path d="M986.679 239.565C984.785 240.746 982.533 241.322 979.925 241.322C975.943 241.322 972.923 240.032 970.808 237.451C969.106 235.336 968.255 232.316 967.953 228.774H999.915C1000.24 223.611 999.613 219.136 998.075 215.374C996.565 211.612 994.258 208.729 991.155 206.697C988.052 204.637 984.318 203.621 979.925 203.621C975.531 203.621 972.016 204.555 968.859 206.45C965.673 208.344 963.202 211.008 961.417 214.495C959.66 217.955 958.781 222.046 958.781 226.769C958.781 231.218 959.687 235.144 961.472 238.522C963.285 241.872 965.811 244.508 969.023 246.402C972.291 248.269 976.053 249.203 980.336 249.203C984.62 249.203 988.327 248.16 991.732 246.045C995.137 243.904 997.69 240.911 999.365 237.039L991.183 234.43C990.112 236.654 988.629 238.357 986.707 239.538L986.679 239.565ZM970.808 214.989C972.923 212.353 976.053 211.035 980.254 211.035C984.043 211.035 986.844 212.243 988.684 214.632C990.084 216.445 990.963 218.998 991.348 222.266H968.145C968.612 219.355 969.353 216.802 970.808 214.989Z" fill="#989DA5"/>
<path d="M949.471 204.637C948.043 204.719 946.671 204.994 945.325 205.433C943.98 205.872 942.771 206.476 941.673 207.273C940.547 208.014 939.559 208.975 938.707 210.156C938.268 210.733 938.021 211.419 937.664 212.051V204.829H930.223V247.994H938.653V226.192C938.653 224.489 938.817 222.869 939.174 221.359C939.531 219.821 940.08 218.421 940.849 217.158C941.646 215.895 942.716 214.851 944.089 213.973C945.517 213.039 947.11 212.49 948.812 212.325C950.542 212.16 952.107 212.27 953.535 212.655V204.829C952.217 204.582 950.872 204.527 949.444 204.637H949.471Z" fill="#989DA5"/>
<path d="M909.793 204.829V227.291C909.793 229.844 909.519 232.014 908.915 233.798C908.366 235.583 907.569 237.011 906.553 238.11C905.565 239.208 904.411 240.004 903.066 240.498C901.748 240.965 900.32 241.212 898.837 241.212C896.558 241.212 894.691 240.746 893.236 239.812C891.835 238.878 890.709 237.643 889.913 236.132C889.144 234.622 888.623 232.975 888.321 231.217C888.046 229.432 887.909 227.703 887.909 226.028V204.802H879.424V228.801C879.424 230.146 879.534 231.684 879.781 233.441C880.028 235.199 880.467 237.011 881.126 238.851C881.785 240.691 882.746 242.393 884.009 243.958C885.3 245.496 886.948 246.759 888.98 247.72C891.012 248.681 893.51 249.148 896.503 249.148C900.402 249.148 903.725 248.297 906.471 246.622C908.201 245.578 909.574 244.178 910.782 242.613V247.995H918.223V204.829H909.793Z" fill="#989DA5"/>
<path d="M870.337 211.529V204.802H857.513V192.802H849.111V204.802H840.846V211.529H849.111V230.998C849.111 233.332 849.111 235.446 849.193 237.313C849.276 239.153 849.77 240.965 850.703 242.75C851.747 244.754 853.285 246.21 855.344 247.143C857.403 248.077 859.737 248.571 862.346 248.654C864.955 248.736 867.618 248.516 870.337 247.967V240.883C867.508 241.295 865.037 241.377 862.95 241.157C860.863 240.91 859.353 239.977 858.392 238.329C857.898 237.45 857.596 236.379 857.541 235.089C857.541 233.798 857.513 232.316 857.513 230.558V211.474H870.337V211.529Z" fill="#989DA5"/>
<path d="M817.863 249.203C813.442 249.203 809.68 248.214 806.577 246.237C803.474 244.26 801.113 241.569 799.465 238.109C797.845 234.677 797.022 230.778 796.994 226.384C796.994 221.936 797.873 218.009 799.548 214.577C801.223 211.145 803.639 208.454 806.742 206.504C809.872 204.554 813.607 203.593 817.973 203.593C822.696 203.593 826.705 204.774 830.055 207.108C833.405 209.442 835.629 212.655 836.7 216.746L828.38 219.135C827.556 216.719 826.183 214.824 824.288 213.506C822.421 212.133 820.279 211.474 817.863 211.474C815.117 211.474 812.865 212.133 811.108 213.424C809.351 214.714 808.033 216.472 807.181 218.696C806.33 220.947 805.891 223.501 805.863 226.384C805.863 230.833 806.907 234.43 808.911 237.176C810.943 239.921 813.909 241.294 817.863 241.294C820.554 241.294 822.723 240.69 824.371 239.455C826.046 238.192 827.336 236.407 828.215 234.1L836.7 236.105C835.272 240.306 832.938 243.546 829.698 245.825C826.43 248.077 822.503 249.175 817.863 249.175V249.203Z" fill="#989DA5"/>
<path d="M778.953 204.829V227.291C778.953 229.844 778.651 232.014 778.075 233.798C777.526 235.583 776.729 237.011 775.713 238.11C774.725 239.208 773.572 240.004 772.226 240.498C770.881 240.965 769.48 241.212 767.997 241.212C765.718 241.212 763.851 240.746 762.396 239.812C760.995 238.878 759.87 237.643 759.073 236.132C758.304 234.622 757.755 232.975 757.481 231.217C757.206 229.432 757.069 227.703 757.069 226.028V204.802H748.584V228.801C748.584 230.146 748.694 231.684 748.941 233.441C749.188 235.199 749.627 237.011 750.314 238.851C750.973 240.691 751.934 242.393 753.197 243.958C754.488 245.496 756.135 246.759 758.167 247.72C760.199 248.681 762.698 249.148 765.691 249.148C769.59 249.148 772.913 248.297 775.658 246.622C777.388 245.578 778.761 244.178 779.969 242.613V247.995H787.411V204.829H778.981H778.953Z" fill="#989DA5"/>
<path d="M736.915 204.637C735.514 204.719 734.114 204.994 732.768 205.433C731.423 205.872 730.215 206.476 729.116 207.273C727.991 208.014 727.002 208.975 726.151 210.156C725.711 210.733 725.464 211.419 725.107 212.051V204.829H717.666V247.994H726.096V226.192C726.096 224.489 726.261 222.869 726.618 221.359C726.975 219.821 727.524 218.421 728.293 217.158C729.089 215.895 730.16 214.851 731.533 213.973C732.961 213.039 734.553 212.49 736.256 212.325C737.986 212.16 739.551 212.27 740.979 212.655V204.829C739.661 204.582 738.315 204.527 736.915 204.637Z" fill="#989DA5"/>
<path d="M707.753 211.529V204.802H694.929V192.802H686.527V204.802H678.262V211.529H686.527V230.998C686.527 233.332 686.527 235.446 686.609 237.313C686.692 239.153 687.186 240.965 688.119 242.75C689.163 244.754 690.701 246.21 692.76 247.143C694.819 248.077 697.153 248.571 699.762 248.654C702.371 248.736 705.034 248.516 707.753 247.967V240.883C704.924 241.295 702.453 241.377 700.366 241.157C698.279 240.91 696.769 239.977 695.808 238.329C695.314 237.45 695.012 236.379 694.957 235.089C694.957 233.798 694.929 232.316 694.929 230.558V211.474H707.753V211.529Z" fill="#989DA5"/>
<path d="M651.681 249.204C647.562 249.204 643.827 248.49 640.477 247.089C637.182 245.661 634.436 243.602 632.295 240.966C630.153 238.302 628.78 235.145 628.148 231.493L636.853 230.175C637.732 233.689 639.571 236.435 642.372 238.412C645.173 240.362 648.441 241.323 652.175 241.323C654.482 241.323 656.623 240.966 658.573 240.252C660.522 239.511 662.088 238.44 663.241 237.094C664.449 235.721 665.053 234.046 665.053 232.124C665.053 231.081 664.861 230.175 664.504 229.378C664.147 228.582 663.653 227.895 663.021 227.291C662.417 226.687 661.648 226.166 660.742 225.726C659.863 225.259 658.902 224.875 657.831 224.573L643.086 220.207C641.658 219.768 640.175 219.246 638.693 218.559C637.21 217.873 635.837 216.967 634.574 215.869C633.338 214.743 632.35 213.37 631.581 211.75C630.812 210.102 630.427 208.098 630.427 205.764C630.427 202.221 631.334 199.228 633.146 196.757C634.986 194.286 637.457 192.419 640.587 191.156C643.718 189.865 647.205 189.233 651.049 189.233C654.948 189.288 658.408 189.975 661.483 191.32C664.586 192.666 667.14 194.56 669.172 197.087C671.231 199.558 672.632 202.578 673.401 206.121L664.449 207.631C664.037 205.462 663.186 203.622 661.895 202.084C660.577 200.519 658.985 199.311 657.09 198.487C655.195 197.636 653.136 197.196 650.939 197.169C648.797 197.114 646.848 197.444 645.063 198.13C643.306 198.817 641.878 199.805 640.834 201.041C639.791 202.304 639.269 203.732 639.269 205.352C639.269 206.972 639.736 208.235 640.67 209.223C641.603 210.212 642.757 211.008 644.102 211.585C645.475 212.134 646.848 212.601 648.221 212.985L658.847 215.978C660.193 216.363 661.676 216.857 663.378 217.489C665.081 218.093 666.728 218.971 668.293 220.097C669.886 221.223 671.204 222.706 672.247 224.573C673.291 226.413 673.812 228.719 673.812 231.52C673.812 234.321 673.236 236.984 672.055 239.209C670.874 241.405 669.282 243.245 667.222 244.728C665.19 246.183 662.856 247.309 660.193 248.05C657.529 248.792 654.729 249.176 651.763 249.176L651.681 249.204Z" fill="#989DA5"/>
<path d="M598.959 207.96C596.405 205.159 592.781 203.759 588.113 203.759C585.23 203.759 582.648 204.39 580.314 205.681C578.09 206.889 576.305 208.619 574.96 210.788C573.834 208.647 572.324 206.944 570.264 205.736C568.095 204.418 565.487 203.786 562.439 203.786C559.391 203.786 556.892 204.418 554.558 205.709C552.718 206.724 551.263 208.125 550.027 209.717V204.885H542.586V248.05H550.988V221.058C550.988 218.12 551.785 215.758 553.377 213.946C554.997 212.134 557.139 211.228 559.775 211.228C562.411 211.228 564.553 212.134 566.118 213.919C567.711 215.704 568.507 218.175 568.507 221.305V248.05H576.827V221.058H576.855C576.855 218.861 577.266 217.049 578.063 215.621C578.887 214.166 579.957 213.067 581.248 212.354C582.593 211.612 584.049 211.228 585.641 211.228C588.25 211.228 590.364 212.106 591.957 213.864C593.55 215.594 594.346 218.01 594.346 221.14V248.05H602.666V219.136C602.693 214.495 601.43 210.788 598.877 207.988L598.959 207.96Z" fill="#989DA5"/>
<path d="M530.204 204.637C528.803 204.719 527.403 204.994 526.057 205.433C524.712 205.872 523.504 206.476 522.405 207.273C521.28 208.014 520.291 208.975 519.44 210.156C519.001 210.733 518.753 211.419 518.396 212.051V204.829H510.955V247.994H519.385V226.192C519.385 224.489 519.55 222.869 519.907 221.359C520.264 219.821 520.813 218.421 521.582 217.158C522.378 215.895 523.449 214.851 524.822 213.973C526.25 213.039 527.842 212.49 529.545 212.325C531.275 212.16 532.84 212.27 534.268 212.655V204.829C532.95 204.582 531.604 204.527 530.204 204.637Z" fill="#989DA5"/>
<path d="M487.972 239.565C486.078 240.746 483.826 241.322 481.218 241.322C477.236 241.322 474.216 240.032 472.101 237.451C470.399 235.336 469.548 232.316 469.245 228.774H501.208C501.537 223.611 500.906 219.136 499.368 215.374C497.858 211.612 495.551 208.729 492.448 206.697C489.345 204.637 485.611 203.621 481.218 203.621C476.824 203.621 473.309 204.555 470.152 206.45C466.966 208.344 464.495 211.008 462.71 214.495C460.953 217.955 460.074 222.046 460.074 226.769C460.074 231.218 460.953 235.144 462.765 238.522C464.577 241.872 467.104 244.508 470.316 246.402C473.557 248.269 477.346 249.203 481.629 249.203C485.913 249.203 489.62 248.16 493.025 246.045C496.43 243.904 498.983 240.911 500.658 237.039L492.476 234.43C491.405 236.654 489.922 238.357 488 239.538L487.972 239.565ZM472.101 214.989C474.216 212.353 477.346 211.035 481.547 211.035C485.336 211.035 488.137 212.243 489.977 214.632C491.377 216.445 492.256 218.998 492.64 222.266H469.438C469.904 219.355 470.646 216.802 472.101 214.989Z" fill="#989DA5"/>
<path d="M434.151 247.995V198.294H415.012V190.414H461.664V198.294H442.526V247.995H434.178H434.151Z" fill="#989DA5"/>
<path d="M387.446 204.829L375.254 237.286L362.486 204.829H353.781L371.245 247.83L364.133 267.189H372.096L395.931 204.829H387.446Z" fill="#989DA5"/>
<path d="M348.948 214.742C347.355 211.31 345.076 208.591 342.111 206.614C339.173 204.61 335.685 203.621 331.649 203.621C327.612 203.621 324.125 204.61 321.324 206.614C320.775 206.999 320.391 207.548 319.897 207.987V190.414H311.494V247.995H318.935V243.794C319.732 244.645 320.473 245.524 321.407 246.183C324.208 248.187 327.667 249.176 331.814 249.176C335.96 249.176 339.31 248.187 342.221 246.183C345.159 244.178 347.41 241.46 348.975 238.027C350.568 234.567 351.364 230.668 351.364 226.357C351.364 222.046 350.568 218.147 348.975 214.715L348.948 214.742ZM341.15 234.128C340.298 236.407 338.98 238.247 337.223 239.592C335.493 240.938 333.296 241.624 330.633 241.624C327.969 241.624 325.635 240.965 323.906 239.675C322.176 238.357 320.913 236.572 320.116 234.265C319.32 231.986 318.908 229.323 318.908 226.357C318.908 223.392 319.32 220.728 320.116 218.449C320.94 216.17 322.203 214.358 323.878 213.095C325.581 211.804 327.75 211.172 330.358 211.172C333.132 211.172 335.411 211.859 337.196 213.204C338.98 214.577 340.298 216.39 341.15 218.669C342.028 220.948 342.468 223.529 342.468 226.357C342.468 229.186 342.028 231.794 341.15 234.101V234.128Z" fill="#989DA5"/>
<path d="M338.623 51.9656H311.219V38.9775H381.349V51.9656H353.945V121.629H338.595V51.9656H338.623Z" fill="#6B717A"/>
<path d="M444.669 90.4632C444.669 91.4792 444.586 92.9345 444.422 94.8292H394.941C395.819 99.4697 398.044 103.177 401.668 105.923C405.375 108.586 409.933 109.932 415.37 109.932C422.29 109.932 428.001 107.652 432.477 103.094L440.385 112.183C437.557 115.561 433.96 118.114 429.649 119.844C425.31 121.574 420.45 122.453 415.013 122.453C408.094 122.453 401.998 121.08 396.726 118.334C391.453 115.588 387.362 111.771 384.451 106.884C381.623 101.914 380.195 96.3394 380.195 90.1062C380.195 83.8731 381.568 78.4637 384.314 73.576C387.142 68.6059 391.042 64.7617 396.012 62.0158C400.982 59.2699 406.556 57.897 412.789 57.897C419.022 57.897 424.404 59.2699 429.209 62.0158C434.097 64.6793 437.859 68.4961 440.55 73.4662C443.296 78.3538 444.669 84.0104 444.669 90.4632ZM412.789 69.6768C408.066 69.6768 404.057 71.1047 400.735 73.9329C397.494 76.6788 395.545 80.3858 394.831 85.0263H430.61C429.978 80.4682 428.056 76.7612 424.816 73.9329C421.576 71.1047 417.567 69.6768 412.762 69.6768H412.789Z" fill="#6B717A"/>
<path d="M473.281 67.782C477.538 61.1645 485.006 57.8694 495.715 57.8694V71.9283C494.452 71.6812 493.326 71.5714 492.283 71.5714C486.544 71.5714 482.041 73.2738 478.828 76.6513C475.588 79.9463 473.995 84.7516 473.995 91.0672V121.656H459.25V58.6108H473.309V67.8095L473.281 67.782Z" fill="#6B717A"/>
<path d="M588.197 57.8694C596.16 57.8694 602.448 60.2034 607.088 64.8439C611.729 69.4021 614.063 76.2943 614.063 85.493V121.629H599.318V87.3877C599.318 81.8684 598.109 77.7496 595.666 75.0037C593.222 72.1755 589.734 70.7476 585.149 70.7476C580.179 70.7476 576.225 72.3951 573.232 75.7177C570.239 78.9578 568.756 83.5984 568.756 89.6393V121.629H554.01V87.3877C554.01 81.8684 552.802 77.7496 550.358 75.0037C547.915 72.1755 544.427 70.7476 539.842 70.7476C534.817 70.7476 530.78 72.3677 527.787 75.5804C524.876 78.8205 523.421 83.4885 523.421 89.6393V121.629H508.676V58.5833H522.735V66.6013C525.096 63.773 528.062 61.6038 531.576 60.121C535.119 58.6382 539.045 57.8694 543.384 57.8694C548.107 57.8694 552.28 58.7755 555.905 60.5878C559.612 62.3177 562.523 64.9263 564.637 68.3861C567.246 65.0911 570.568 62.5099 574.659 60.7251C578.751 58.8304 583.282 57.8968 588.224 57.8968L588.197 57.8694Z" fill="#6B717A"/>
<path d="M870.72 121.657L846.145 89.5572L869.649 58.8856H853.778L838.319 79.4249L822.969 58.8856H806.631L830.081 89.7494L805.588 121.657H821.816L838.072 99.9641L854.135 121.657H870.72Z" fill="#26C3EF"/>
<path d="M787.795 64.7338C782.853 60.3404 775.851 58.1437 766.762 58.1437C761.737 58.1437 756.877 58.8027 752.181 60.1482C747.568 61.4113 743.559 63.3334 740.182 65.9145L745.948 76.6235C748.31 74.6739 751.165 73.1362 754.515 72.0379C757.975 70.9395 761.462 70.3904 764.977 70.3904C770.222 70.3904 774.148 71.5985 776.73 74.0424C779.311 76.4038 780.601 79.7264 780.601 84.0374V84.971H764.373C758.03 84.971 752.923 85.7948 749.106 87.4423C745.289 89.0898 742.488 91.314 740.758 94.1423C739.111 96.9705 738.287 100.128 738.287 103.671C738.287 107.213 739.221 110.535 741.115 113.418C743.065 116.247 745.811 118.471 749.353 120.118C752.868 121.684 756.987 122.48 761.682 122.48C767.256 122.48 771.842 121.464 775.439 119.432C778.102 117.949 779.97 115.917 781.425 113.583V121.684H795.292V84.8886C795.292 75.7998 792.793 69.0998 787.768 64.7887L787.795 64.7338ZM774.396 109.3C771.567 110.947 768.355 111.771 764.758 111.771C761.16 111.771 758.057 110.975 755.943 109.409C753.829 107.844 752.758 105.73 752.758 103.066C752.758 100.705 753.609 98.7554 755.339 97.1902C757.069 95.5427 760.419 94.7189 765.444 94.7189H780.601V101.996C779.338 105.208 777.279 107.625 774.368 109.272L774.396 109.3Z" fill="#26C3EF"/>
<path d="M721.948 121.629L721.838 39.3625H709.262L677.162 93.8959L644.486 39.3625H631.91V121.629H646.491V67.8374L673.538 112.238H680.348L707.395 67.1235L707.504 121.629H721.948Z" fill="#26C3EF"/>
<defs>
<linearGradient id="paint0_linear_5275_22341" x1="145.15" y1="133.107" x2="145.15" y2="348" gradientUnits="userSpaceOnUse">
<stop stop-color="white"/>
<stop offset="1" stop-color="white" stop-opacity="0"/>
</linearGradient>
<linearGradient id="paint1_linear_5275_22341" x1="119.996" y1="66.6018" x2="120.298" y2="240.746" gradientUnits="userSpaceOnUse">
<stop stop-color="white"/>
<stop offset="1" stop-color="white" stop-opacity="0"/>
</linearGradient>
</defs>
</svg>
