<svg width="1000" height="288" viewBox="0 0 1000 288" fill="none" xmlns="http://www.w3.org/2000/svg">
<path d="M986.68 239.572C984.786 240.752 982.534 241.329 979.925 241.329C975.944 241.329 972.923 240.038 970.809 237.457C969.106 235.343 968.255 232.322 967.953 228.78H999.916C1000.25 223.618 999.614 219.142 998.076 215.38C996.566 211.618 994.259 208.734 991.156 206.702C988.053 204.643 984.319 203.627 979.925 203.627C975.532 203.627 972.017 204.561 968.859 206.455C965.674 208.35 963.202 211.014 961.417 214.501C959.66 217.961 958.781 222.052 958.781 226.775C958.781 231.224 959.687 235.151 961.472 238.528C963.285 241.878 965.811 244.514 969.024 246.409C972.291 248.276 976.053 249.21 980.337 249.21C984.621 249.21 988.328 248.167 991.733 246.052C995.138 243.91 997.692 240.917 999.367 237.045L991.184 234.437C990.113 236.661 988.63 238.363 986.708 239.544L986.68 239.572ZM970.809 214.995C972.923 212.359 976.053 211.041 980.255 211.041C984.044 211.041 986.845 212.249 988.685 214.638C990.085 216.451 990.964 219.004 991.348 222.272H968.145C968.612 219.361 969.353 216.808 970.809 214.995Z" fill="white"/>
<path d="M949.472 204.643C948.044 204.725 946.671 205 945.325 205.439C943.98 205.879 942.772 206.483 941.673 207.279C940.548 208.021 939.559 208.982 938.708 210.162C938.268 210.739 938.021 211.425 937.664 212.057V204.835H930.223V248.002H938.653V226.199C938.653 224.496 938.818 222.876 939.175 221.366C939.531 219.828 940.081 218.428 940.85 217.165C941.646 215.901 942.717 214.858 944.09 213.979C945.518 213.046 947.11 212.496 948.813 212.332C950.543 212.167 952.108 212.277 953.536 212.661V204.835C952.218 204.588 950.872 204.533 949.444 204.643H949.472Z" fill="white"/>
<path d="M909.792 204.835V227.297C909.792 229.851 909.518 232.02 908.914 233.805C908.364 235.59 907.568 237.018 906.552 238.116C905.563 239.215 904.41 240.011 903.065 240.505C901.747 240.972 900.319 241.219 898.836 241.219C896.557 241.219 894.689 240.753 893.234 239.819C891.834 238.885 890.708 237.65 889.911 236.139C889.143 234.629 888.621 232.981 888.319 231.224C888.044 229.439 887.907 227.709 887.907 226.034V204.808H879.422V228.808C879.422 230.153 879.532 231.691 879.779 233.448C880.026 235.206 880.465 237.018 881.124 238.858C881.783 240.698 882.745 242.4 884.008 243.965C885.298 245.503 886.946 246.766 888.978 247.727C891.01 248.688 893.509 249.155 896.502 249.155C900.401 249.155 903.724 248.304 906.47 246.629C908.2 245.585 909.573 244.185 910.781 242.62V248.002H918.222V204.835H909.792Z" fill="white"/>
<path d="M870.333 211.536V204.808H857.51V192.808H849.107V204.808H840.842V211.536H849.107V231.004C849.107 233.338 849.107 235.453 849.19 237.32C849.272 239.16 849.766 240.972 850.7 242.757C851.743 244.762 853.281 246.217 855.34 247.151C857.4 248.084 859.734 248.579 862.343 248.661C864.951 248.743 867.615 248.524 870.333 247.975V240.89C867.505 241.302 865.034 241.384 862.947 241.164C860.86 240.917 859.35 239.984 858.388 238.336C857.894 237.457 857.592 236.387 857.537 235.096C857.537 233.805 857.51 232.322 857.51 230.565V211.481H870.333V211.536Z" fill="white"/>
<path d="M817.856 249.21C813.435 249.21 809.673 248.221 806.57 246.244C803.467 244.267 801.105 241.576 799.458 238.116C797.838 234.684 797.014 230.784 796.986 226.391C796.986 221.942 797.865 218.016 799.54 214.583C801.215 211.151 803.632 208.46 806.734 206.51C809.865 204.561 813.599 203.599 817.965 203.599C822.688 203.599 826.698 204.78 830.048 207.114C833.398 209.448 835.622 212.661 836.693 216.753L828.373 219.142C827.549 216.725 826.176 214.83 824.281 213.512C822.414 212.139 820.272 211.48 817.856 211.48C815.11 211.48 812.858 212.139 811.101 213.43C809.343 214.721 808.025 216.478 807.174 218.702C806.323 220.954 805.883 223.508 805.856 226.391C805.856 230.839 806.899 234.437 808.904 237.183C810.936 239.929 813.901 241.302 817.856 241.302C820.547 241.302 822.716 240.697 824.364 239.462C826.039 238.199 827.329 236.414 828.208 234.107L836.693 236.112C835.265 240.313 832.931 243.553 829.691 245.832C826.423 248.084 822.496 249.182 817.856 249.182V249.21Z" fill="white"/>
<path d="M778.947 204.835V227.297C778.947 229.851 778.644 232.02 778.068 233.805C777.519 235.59 776.722 237.018 775.706 238.116C774.718 239.215 773.564 240.011 772.219 240.505C770.873 240.972 769.473 241.219 767.99 241.219C765.711 241.219 763.844 240.753 762.388 239.819C760.988 238.885 759.862 237.65 759.066 236.139C758.297 234.629 757.748 232.981 757.473 231.224C757.198 229.439 757.061 227.709 757.061 226.034V204.808H748.576V228.808C748.576 230.153 748.686 231.691 748.933 233.448C749.18 235.206 749.62 237.018 750.306 238.858C750.965 240.698 751.926 242.4 753.189 243.965C754.48 245.503 756.128 246.766 758.16 247.727C760.192 248.688 762.69 249.155 765.684 249.155C769.583 249.155 772.905 248.304 775.651 246.629C777.381 245.585 778.754 244.185 779.963 242.62V248.002H787.404V204.835H778.974H778.947Z" fill="white"/>
<path d="M736.905 204.643C735.505 204.725 734.105 205 732.759 205.439C731.414 205.879 730.205 206.483 729.107 207.279C727.981 208.021 726.993 208.982 726.141 210.162C725.702 210.739 725.455 211.425 725.098 212.057V204.835H717.656V248.002H726.086V226.199C726.086 224.496 726.251 222.876 726.608 221.366C726.965 219.828 727.514 218.428 728.283 217.165C729.08 215.901 730.15 214.858 731.523 213.979C732.951 213.046 734.544 212.496 736.246 212.332C737.976 212.167 739.542 212.277 740.97 212.661V204.835C739.651 204.588 738.306 204.533 736.905 204.643Z" fill="white"/>
<path d="M707.746 211.536V204.808H694.922V192.808H686.519V204.808H678.254V211.536H686.519V231.004C686.519 233.338 686.519 235.453 686.602 237.32C686.684 239.16 687.178 240.972 688.112 242.757C689.155 244.762 690.693 246.217 692.753 247.151C694.812 248.084 697.146 248.579 699.755 248.661C702.363 248.743 705.027 248.524 707.746 247.975V240.89C704.917 241.302 702.446 241.384 700.359 241.164C698.272 240.917 696.762 239.984 695.801 238.336C695.306 237.457 695.004 236.387 694.949 235.096C694.949 233.805 694.922 232.322 694.922 230.565V211.481H707.746V211.536Z" fill="white"/>
<path d="M651.673 249.21C647.555 249.21 643.82 248.496 640.47 247.096C637.175 245.668 634.429 243.608 632.287 240.972C630.145 238.309 628.772 235.151 628.141 231.499L636.845 230.18C637.724 233.695 639.564 236.441 642.365 238.418C645.166 240.368 648.433 241.329 652.168 241.329C654.474 241.329 656.616 240.972 658.566 240.258C660.515 239.517 662.081 238.446 663.234 237.1C664.442 235.727 665.046 234.052 665.046 232.13C665.046 231.087 664.854 230.18 664.497 229.384C664.14 228.588 663.646 227.901 663.014 227.297C662.41 226.693 661.641 226.171 660.735 225.732C659.856 225.265 658.895 224.881 657.824 224.579L643.079 220.213C641.651 219.773 640.168 219.252 638.685 218.565C637.202 217.879 635.829 216.972 634.566 215.874C633.33 214.748 632.342 213.375 631.573 211.755C630.804 210.108 630.42 208.103 630.42 205.769C630.42 202.227 631.326 199.233 633.138 196.762C634.978 194.291 637.449 192.424 640.58 191.16C643.71 189.87 647.198 189.238 651.042 189.238C654.941 189.293 658.401 189.98 661.477 191.325C664.58 192.671 667.133 194.565 669.165 197.092C671.225 199.563 672.625 202.584 673.394 206.126L664.442 207.636C664.03 205.467 663.179 203.627 661.888 202.089C660.57 200.524 658.978 199.316 657.083 198.492C655.188 197.641 653.129 197.201 650.932 197.174C648.79 197.119 646.841 197.449 645.056 198.135C643.298 198.822 641.87 199.81 640.827 201.046C639.783 202.309 639.262 203.737 639.262 205.357C639.262 206.977 639.729 208.24 640.662 209.229C641.596 210.217 642.749 211.014 644.095 211.59C645.468 212.14 646.841 212.606 648.214 212.991L658.84 215.984C660.186 216.368 661.669 216.863 663.371 217.494C665.074 218.098 666.721 218.977 668.287 220.103C669.879 221.229 671.197 222.711 672.241 224.579C673.284 226.418 673.806 228.725 673.806 231.526C673.806 234.327 673.229 236.99 672.049 239.215C670.868 241.411 669.275 243.251 667.216 244.734C665.184 246.189 662.85 247.315 660.186 248.057C657.522 248.798 654.721 249.182 651.756 249.182L651.673 249.21Z" fill="white"/>
<path d="M598.949 207.938C596.395 205.137 592.77 203.737 588.102 203.737C585.219 203.737 582.638 204.369 580.304 205.659C578.079 206.867 576.295 208.597 574.949 210.767C573.823 208.625 572.313 206.922 570.253 205.714C568.084 204.396 565.475 203.764 562.427 203.764C559.379 203.764 556.881 204.396 554.547 205.687C552.707 206.703 551.251 208.103 550.016 209.696V204.863H542.574V248.029H550.977V221.036C550.977 218.098 551.773 215.737 553.366 213.924C554.986 212.112 557.128 211.206 559.764 211.206C562.4 211.206 564.542 212.112 566.107 213.897C567.7 215.682 568.496 218.153 568.496 221.284V248.029H576.816V221.036H576.844C576.844 218.84 577.256 217.027 578.052 215.6C578.876 214.144 579.947 213.046 581.237 212.332C582.583 211.59 584.038 211.206 585.631 211.206C588.24 211.206 590.354 212.085 591.947 213.842C593.539 215.572 594.336 217.988 594.336 221.119V248.029H602.656V219.114C602.683 214.474 601.42 210.767 598.866 207.966L598.949 207.938Z" fill="white"/>
<path d="M530.189 204.643C528.788 204.725 527.388 205 526.042 205.439C524.697 205.879 523.489 206.483 522.39 207.279C521.264 208.021 520.276 208.982 519.424 210.162C518.985 210.739 518.738 211.425 518.381 212.057V204.835H510.939V248.002H519.37V226.199C519.37 224.496 519.534 222.876 519.891 221.366C520.248 219.828 520.797 218.428 521.566 217.165C522.363 215.901 523.434 214.858 524.807 213.979C526.235 213.046 527.827 212.496 529.53 212.332C531.26 212.167 532.825 212.277 534.253 212.661V204.835C532.935 204.588 531.589 204.533 530.189 204.643Z" fill="white"/>
<path d="M487.959 239.572C486.065 240.752 483.813 241.329 481.204 241.329C477.223 241.329 474.202 240.038 472.088 237.457C470.385 235.343 469.534 232.322 469.232 228.78H501.195C501.525 223.618 500.893 219.142 499.355 215.38C497.845 211.618 495.538 208.734 492.435 206.702C489.332 204.643 485.598 203.627 481.204 203.627C476.811 203.627 473.296 204.561 470.138 206.455C466.953 208.35 464.482 211.014 462.697 214.501C460.939 217.961 460.061 222.052 460.061 226.775C460.061 231.224 460.939 235.151 462.752 238.528C464.564 241.878 467.09 244.514 470.303 246.409C473.543 248.276 477.333 249.21 481.616 249.21C485.9 249.21 489.607 248.167 493.012 246.052C496.417 243.91 498.971 240.917 500.646 237.045L492.463 234.437C491.392 236.661 489.909 238.363 487.987 239.544L487.959 239.572ZM472.088 214.995C474.202 212.359 477.333 211.041 481.534 211.041C485.323 211.041 488.124 212.249 489.964 214.638C491.365 216.451 492.243 219.004 492.628 222.272H469.424C469.891 219.361 470.632 216.808 472.088 214.995Z" fill="white"/>
<path d="M434.137 248.002V198.3H414.998V190.419H461.652V198.3H442.513V248.002H434.165H434.137Z" fill="white"/>
<path d="M387.429 204.835L375.237 237.292L362.468 204.835H353.764L371.228 247.837L364.116 267.196H372.079L395.914 204.835H387.429Z" fill="white"/>
<path d="M348.93 214.748C347.337 211.316 345.058 208.597 342.092 206.62C339.154 204.615 335.667 203.627 331.63 203.627C327.593 203.627 324.106 204.615 321.305 206.62C320.756 207.004 320.372 207.553 319.877 207.993V190.419H311.475V248.002H318.916V243.8C319.712 244.651 320.454 245.53 321.388 246.189C324.188 248.194 327.648 249.182 331.795 249.182C335.941 249.182 339.291 248.194 342.202 246.189C345.14 244.185 347.392 241.466 348.957 238.034C350.55 234.574 351.346 230.675 351.346 226.363C351.346 222.052 350.55 218.153 348.957 214.72L348.93 214.748ZM341.131 234.134C340.28 236.414 338.962 238.253 337.204 239.599C335.474 240.944 333.278 241.631 330.614 241.631C327.95 241.631 325.616 240.972 323.886 239.681C322.156 238.363 320.893 236.578 320.097 234.272C319.301 231.993 318.889 229.329 318.889 226.363C318.889 223.398 319.301 220.734 320.097 218.455C320.921 216.176 322.184 214.364 323.859 213.1C325.561 211.81 327.731 211.178 330.339 211.178C333.113 211.178 335.392 211.865 337.177 213.21C338.962 214.583 340.28 216.396 341.131 218.675C342.01 220.954 342.449 223.535 342.449 226.363C342.449 229.192 342.01 231.8 341.131 234.107V234.134Z" fill="white"/>
<path d="M338.604 51.9676H311.199V38.9791H381.331V51.9676H353.926V121.633H338.576V51.9676H338.604Z" fill="white"/>
<path d="M444.653 90.4659C444.653 91.482 444.571 92.9373 444.406 94.832H394.924C395.802 99.4727 398.027 103.18 401.651 105.926C405.358 108.589 409.917 109.935 415.354 109.935C422.273 109.935 427.985 107.656 432.461 103.097L440.369 112.187C437.541 115.564 433.944 118.118 429.633 119.848C425.294 121.578 420.434 122.456 414.997 122.456C408.077 122.456 401.981 121.083 396.708 118.337C391.436 115.591 387.345 111.775 384.434 106.887C381.606 101.917 380.178 96.3423 380.178 90.109C380.178 83.8756 381.551 78.4661 384.297 73.5783C387.125 68.6081 391.024 64.7638 395.995 62.0178C400.965 59.2718 406.539 57.8989 412.772 57.8989C419.006 57.8989 424.388 59.2718 429.193 62.0178C434.081 64.6814 437.843 68.4982 440.534 73.4684C443.28 78.3562 444.653 84.0129 444.653 90.4659ZM412.772 69.679C408.049 69.679 404.04 71.1069 400.718 73.9353C397.477 76.6812 395.528 80.3882 394.814 85.0289H430.594C429.962 80.4706 428.04 76.7636 424.8 73.9353C421.559 71.1069 417.55 69.679 412.745 69.679H412.772Z" fill="white"/>
<path d="M473.266 67.7843C477.522 61.1665 484.992 57.8714 495.701 57.8714V71.9307C494.438 71.6835 493.312 71.5737 492.268 71.5737C486.529 71.5737 482.026 73.2762 478.813 76.6537C475.573 79.9489 473.98 84.7543 473.98 91.0701V121.66H459.234V58.6127H473.294V67.8117L473.266 67.7843Z" fill="white"/>
<path d="M588.185 57.8714C596.148 57.8714 602.437 60.2055 607.077 64.8461C611.718 69.4044 614.052 76.2968 614.052 85.4958V121.633H599.306V87.3905C599.306 81.8711 598.098 77.7521 595.654 75.0062C593.21 72.1778 589.723 70.7499 585.137 70.7499C580.167 70.7499 576.213 72.3975 573.22 75.7201C570.227 78.9604 568.744 83.6011 568.744 89.6422V121.633H553.998V87.3905C553.998 81.8711 552.79 77.7521 550.346 75.0062C547.902 72.1778 544.415 70.7499 539.829 70.7499C534.804 70.7499 530.767 72.37 527.774 75.5828C524.863 78.823 523.408 83.4912 523.408 89.6422V121.633H508.662V58.5853H522.721V66.6035C525.083 63.7752 528.049 61.6059 531.563 60.1231C535.106 58.6403 539.032 57.8714 543.371 57.8714C548.094 57.8714 552.268 58.7775 555.893 60.5898C559.6 62.3198 562.51 64.9285 564.625 68.3884C567.234 65.0932 570.556 62.5121 574.648 60.7272C578.739 58.8325 583.27 57.8989 588.213 57.8989L588.185 57.8714Z" fill="white"/>
<path d="M870.716 121.66L846.14 89.5598L869.645 58.8874H853.774L838.314 79.4272L822.964 58.8874H806.626L830.076 89.752L805.582 121.66H821.811L838.067 99.9669L854.131 121.66H870.716Z" fill="white"/>
<path d="M787.789 64.7362C782.846 60.3427 775.844 58.1459 766.755 58.1459C761.73 58.1459 756.869 58.8049 752.174 60.1504C747.561 61.4135 743.552 63.3357 740.174 65.9169L745.941 76.6262C748.302 74.6765 751.158 73.1389 754.508 72.0405C757.968 70.9421 761.455 70.3929 764.97 70.3929C770.215 70.3929 774.142 71.6011 776.723 74.045C779.304 76.4065 780.595 79.7292 780.595 84.0403V84.9739H764.366C758.023 84.9739 752.915 85.7977 749.098 87.4453C745.282 89.0929 742.481 91.3171 740.751 94.1454C739.103 96.9738 738.279 100.132 738.279 103.674C738.279 107.216 739.213 110.539 741.108 113.422C743.057 116.25 745.803 118.475 749.346 120.122C752.86 121.687 756.979 122.484 761.675 122.484C767.249 122.484 771.835 121.468 775.432 119.436C778.096 117.953 779.963 115.921 781.418 113.587V121.687H795.286V84.8916C795.286 75.8024 792.787 69.1022 787.762 64.7911L787.789 64.7362ZM774.389 109.303C771.56 110.951 768.348 111.775 764.75 111.775C761.153 111.775 758.05 110.978 755.936 109.413C753.821 107.848 752.75 105.733 752.75 103.07C752.75 100.708 753.602 98.7587 755.332 97.1935C757.062 95.5459 760.412 94.7221 765.437 94.7221H780.595V101.999C779.331 105.212 777.272 107.628 774.361 109.276L774.389 109.303Z" fill="white"/>
<path d="M721.94 121.633L721.831 39.3636H709.254L677.154 93.8984L644.477 39.3636H631.9V121.633H646.481V67.8392L673.529 112.241H680.339L707.387 67.1253L707.497 121.633H721.94Z" fill="white"/>
<path d="M144.411 137.339C111.377 200.332 78.3431 229.714 32.2109 236.167L115.935 284.468C117.94 285.457 119.972 286.225 122.059 286.72C123.102 286.967 124.118 287.159 125.162 287.269C126.205 287.406 127.221 287.461 128.237 287.461C132.329 287.461 136.338 286.473 139.935 284.468L216.053 240.56L243.897 224.496C247.494 222.107 250.488 219.087 252.602 215.599C254.689 212.112 255.897 208.103 255.897 203.709V83.7656C255.897 82.8045 255.815 81.8434 255.705 80.9098C255.677 80.6352 255.65 80.3881 255.595 80.1135C255.458 79.2897 255.32 78.4659 255.101 77.6696C255.018 77.3401 254.909 77.038 254.826 76.736C254.661 76.2417 254.497 75.72 254.304 75.2257H250.597C199.632 79.3447 163.935 100.241 144.411 137.312V137.339Z" fill="white"/>
<path d="M6.72762 73.9352L2.25169 73.8802C2.16931 74.045 2.08694 74.2098 2.00456 74.3746C1.9771 74.4569 1.92218 74.5393 1.86726 74.6217C1.51028 75.4455 1.20822 76.2967 0.961083 77.1754C0.878704 77.45 0.823801 77.7246 0.741422 77.9992C0.576664 78.6582 0.439362 79.3447 0.329523 80.0312C0.274604 80.3058 0.247136 80.5804 0.192217 80.8825C0.0823781 81.8436 0 82.8046 0 83.7932V203.737C0 208.13 1.20824 212.332 3.29517 215.929C5.18988 219.169 7.826 221.86 10.9289 223.837L21.8579 223.48C53.1344 221.284 87.404 209.778 125.079 144.012C123.733 141.568 122.388 139.097 121.042 136.571C100.447 97.4132 61.9764 76.3516 6.70016 73.9626L6.72762 73.9352Z" fill="white"/>
<path d="M132.959 129.706C153.746 91.2347 191.558 68.0587 242.661 62.2648L139.934 3.00683C131.943 -1.00228 123.129 -1.00228 115.934 3.00683L15.7617 60.8094C70.9556 65.2853 111.321 88.9555 132.959 129.733V129.706Z" fill="white"/>
</svg>
