<svg width="1000" height="288" viewBox="0 0 1000 288" fill="none" xmlns="http://www.w3.org/2000/svg">
<path d="M986.68 239.572C984.786 240.752 982.534 241.329 979.925 241.329C975.944 241.329 972.923 240.038 970.809 237.457C969.106 235.343 968.255 232.322 967.953 228.78H999.916C1000.25 223.618 999.614 219.142 998.076 215.38C996.566 211.618 994.259 208.734 991.156 206.702C988.053 204.643 984.319 203.627 979.925 203.627C975.532 203.627 972.017 204.561 968.859 206.455C965.674 208.35 963.202 211.014 961.417 214.501C959.66 217.961 958.781 222.052 958.781 226.775C958.781 231.224 959.687 235.151 961.472 238.528C963.285 241.878 965.811 244.514 969.024 246.409C972.291 248.276 976.053 249.21 980.337 249.21C984.621 249.21 988.328 248.166 991.733 246.052C995.138 243.91 997.692 240.917 999.367 237.045L991.184 234.437C990.113 236.661 988.63 238.363 986.708 239.544L986.68 239.572ZM970.809 214.995C972.923 212.359 976.053 211.041 980.255 211.041C984.044 211.041 986.845 212.249 988.685 214.638C990.085 216.451 990.964 219.004 991.348 222.272H968.145C968.612 219.361 969.353 216.808 970.809 214.995Z" fill="black"/>
<path d="M949.472 204.643C948.044 204.725 946.671 205 945.325 205.439C943.98 205.879 942.772 206.483 941.673 207.279C940.548 208.02 939.559 208.981 938.708 210.162C938.268 210.739 938.021 211.425 937.664 212.057V204.835H930.223V248.002H938.653V226.199C938.653 224.496 938.818 222.876 939.175 221.366C939.531 219.828 940.081 218.428 940.85 217.164C941.646 215.901 942.717 214.858 944.09 213.979C945.518 213.046 947.11 212.496 948.813 212.332C950.543 212.167 952.108 212.277 953.536 212.661V204.835C952.218 204.588 950.872 204.533 949.444 204.643H949.472Z" fill="black"/>
<path d="M909.765 204.835V227.297C909.765 229.851 909.49 232.02 908.886 233.805C908.337 235.59 907.541 237.018 906.525 238.116C905.536 239.215 904.383 240.011 903.037 240.505C901.719 240.972 900.291 241.219 898.809 241.219C896.529 241.219 894.662 240.752 893.207 239.819C891.806 238.885 890.68 237.649 889.884 236.139C889.115 234.629 888.593 232.981 888.291 231.224C888.017 229.439 887.879 227.709 887.879 226.034V204.808H879.395V228.807C879.395 230.153 879.504 231.691 879.752 233.448C879.999 235.206 880.438 237.018 881.097 238.858C881.756 240.698 882.717 242.4 883.98 243.965C885.271 245.503 886.918 246.766 888.95 247.727C890.982 248.688 893.481 249.155 896.474 249.155C900.374 249.155 903.696 248.304 906.442 246.629C908.172 245.585 909.545 244.185 910.753 242.62V248.002H918.195V204.835H909.765Z" fill="black"/>
<path d="M870.333 211.535V204.808H857.51V192.808H849.107V204.808H840.842V211.535H849.107V231.004C849.107 233.338 849.107 235.453 849.19 237.32C849.272 239.16 849.766 240.972 850.7 242.757C851.743 244.762 853.281 246.217 855.341 247.151C857.4 248.084 859.734 248.578 862.343 248.661C864.951 248.743 867.615 248.524 870.333 247.974V240.89C867.505 241.302 865.034 241.384 862.947 241.164C860.86 240.917 859.35 239.984 858.389 238.336C857.894 237.457 857.592 236.386 857.537 235.096C857.537 233.805 857.51 232.322 857.51 230.565V211.481H870.333V211.535Z" fill="black"/>
<path d="M817.858 249.21C813.437 249.21 809.675 248.221 806.572 246.244C803.469 244.267 801.107 241.576 799.46 238.116C797.839 234.684 797.016 230.784 796.988 226.391C796.988 221.942 797.867 218.016 799.542 214.583C801.217 211.151 803.633 208.46 806.736 206.51C809.867 204.56 813.601 203.599 817.967 203.599C822.691 203.599 826.7 204.78 830.05 207.114C833.4 209.448 835.624 212.661 836.695 216.752L828.375 219.142C827.551 216.725 826.178 214.83 824.283 213.512C822.416 212.139 820.274 211.48 817.858 211.48C815.112 211.48 812.86 212.139 811.103 213.43C809.345 214.72 808.027 216.478 807.176 218.702C806.324 220.954 805.885 223.508 805.858 226.391C805.858 230.839 806.901 234.436 808.906 237.182C810.938 239.928 813.903 241.301 817.858 241.301C820.549 241.301 822.718 240.697 824.365 239.462C826.04 238.198 827.331 236.414 828.21 234.107L836.695 236.112C835.267 240.313 832.933 243.553 829.693 245.832C826.425 248.084 822.498 249.182 817.858 249.182V249.21Z" fill="black"/>
<path d="M778.948 204.835V227.297C778.948 229.851 778.646 232.02 778.07 233.805C777.521 235.59 776.724 237.018 775.708 238.116C774.72 239.215 773.566 240.011 772.221 240.505C770.875 240.972 769.475 241.219 767.992 241.219C765.713 241.219 763.846 240.752 762.39 239.819C760.99 238.885 759.864 237.649 759.068 236.139C758.299 234.629 757.75 232.981 757.475 231.224C757.2 229.439 757.063 227.709 757.063 226.034V204.808H748.578V228.807C748.578 230.153 748.688 231.691 748.935 233.448C749.182 235.206 749.622 237.018 750.308 238.858C750.967 240.698 751.928 242.4 753.191 243.965C754.482 245.503 756.129 246.766 758.162 247.727C760.194 248.688 762.692 249.155 765.685 249.155C769.585 249.155 772.907 248.304 775.653 246.629C777.383 245.585 778.756 244.185 779.964 242.62V248.002H787.406V204.835H778.976H778.948Z" fill="black"/>
<path d="M736.905 204.643C735.505 204.725 734.105 205 732.759 205.439C731.414 205.879 730.205 206.483 729.107 207.279C727.981 208.02 726.993 208.981 726.141 210.162C725.702 210.739 725.455 211.425 725.098 212.057V204.835H717.656V248.002H726.086V226.199C726.086 224.496 726.251 222.876 726.608 221.366C726.965 219.828 727.514 218.428 728.283 217.164C729.079 215.901 730.15 214.858 731.523 213.979C732.951 213.046 734.544 212.496 736.246 212.332C737.976 212.167 739.542 212.277 740.969 212.661V204.835C739.651 204.588 738.306 204.533 736.905 204.643Z" fill="black"/>
<path d="M707.746 211.535V204.808H694.922V192.808H686.519V204.808H678.254V211.535H686.519V231.004C686.519 233.338 686.519 235.453 686.602 237.32C686.684 239.16 687.178 240.972 688.112 242.757C689.155 244.762 690.693 246.217 692.752 247.151C694.812 248.084 697.146 248.578 699.755 248.661C702.363 248.743 705.027 248.524 707.746 247.974V240.89C704.917 241.302 702.446 241.384 700.359 241.164C698.272 240.917 696.762 239.984 695.8 238.336C695.306 237.457 695.004 236.386 694.949 235.096C694.949 233.805 694.922 232.322 694.922 230.565V211.481H707.746V211.535Z" fill="black"/>
<path d="M651.672 249.21C647.553 249.21 643.818 248.496 640.468 247.095C637.173 245.668 634.427 243.608 632.285 240.972C630.143 238.308 628.77 235.151 628.139 231.498L636.843 230.18C637.722 233.695 639.562 236.441 642.363 238.418C645.164 240.368 648.431 241.329 652.166 241.329C654.472 241.329 656.614 240.972 658.564 240.258C660.513 239.517 662.079 238.446 663.232 237.1C664.44 235.727 665.044 234.052 665.044 232.13C665.044 231.086 664.852 230.18 664.495 229.384C664.138 228.588 663.644 227.901 663.012 227.297C662.408 226.693 661.639 226.171 660.733 225.732C659.855 225.265 658.893 224.881 657.823 224.579L643.077 220.212C641.649 219.773 640.166 219.251 638.683 218.565C637.2 217.878 635.827 216.972 634.564 215.874C633.328 214.748 632.34 213.375 631.571 211.755C630.802 210.107 630.418 208.103 630.418 205.769C630.418 202.226 631.324 199.233 633.136 196.762C634.976 194.291 637.447 192.423 640.578 191.16C643.708 189.87 647.196 189.238 651.04 189.238C654.939 189.293 658.399 189.979 661.475 191.325C664.577 192.671 667.131 194.565 669.163 197.091C671.223 199.563 672.623 202.583 673.392 206.126L664.44 207.636C664.028 205.467 663.177 203.627 661.886 202.089C660.568 200.524 658.976 199.316 657.081 198.492C655.186 197.641 653.127 197.201 650.93 197.174C648.788 197.119 646.839 197.448 645.054 198.135C643.296 198.821 641.868 199.81 640.825 201.046C639.782 202.309 639.26 203.737 639.26 205.357C639.26 206.977 639.727 208.24 640.66 209.229C641.594 210.217 642.747 211.014 644.093 211.59C645.466 212.139 646.839 212.606 648.212 212.991L658.839 215.984C660.184 216.368 661.667 216.862 663.369 217.494C665.072 218.098 666.719 218.977 668.285 220.103C669.877 221.228 671.195 222.711 672.239 224.579C673.282 226.418 673.804 228.725 673.804 231.526C673.804 234.327 673.227 236.99 672.047 239.215C670.866 241.411 669.273 243.251 667.214 244.734C665.182 246.189 662.848 247.315 660.184 248.057C657.52 248.798 654.72 249.182 651.754 249.182L651.672 249.21Z" fill="black"/>
<path d="M598.949 207.938C596.395 205.137 592.77 203.737 588.102 203.737C585.219 203.737 582.638 204.368 580.304 205.659C578.079 206.867 576.295 208.597 574.949 210.766C573.823 208.625 572.313 206.922 570.254 205.714C568.084 204.396 565.476 203.764 562.428 203.764C559.38 203.764 556.881 204.396 554.547 205.686C552.707 206.702 551.252 208.103 550.016 209.696V204.863H542.574V248.029H550.977V221.036C550.977 218.098 551.773 215.737 553.366 213.924C554.986 212.112 557.128 211.206 559.764 211.206C562.4 211.206 564.542 212.112 566.107 213.897C567.7 215.682 568.496 218.153 568.496 221.284V248.029H576.816V221.036H576.844C576.844 218.84 577.256 217.027 578.052 215.599C578.876 214.144 579.947 213.046 581.237 212.332C582.583 211.59 584.038 211.206 585.631 211.206C588.24 211.206 590.354 212.085 591.947 213.842C593.539 215.572 594.336 217.988 594.336 221.119V248.029H602.656V219.114C602.683 214.474 601.42 210.767 598.866 207.966L598.949 207.938Z" fill="black"/>
<path d="M530.192 204.643C528.792 204.725 527.392 205 526.046 205.439C524.701 205.879 523.492 206.483 522.394 207.279C521.268 208.02 520.28 208.981 519.428 210.162C518.989 210.739 518.742 211.425 518.385 212.057V204.835H510.943V248.002H519.373V226.199C519.373 224.496 519.538 222.876 519.895 221.366C520.252 219.828 520.801 218.428 521.57 217.164C522.367 215.901 523.437 214.858 524.81 213.979C526.238 213.046 527.831 212.496 529.533 212.332C531.263 212.167 532.829 212.277 534.257 212.661V204.835C532.938 204.588 531.593 204.533 530.192 204.643Z" fill="black"/>
<path d="M487.93 239.572C486.036 240.752 483.784 241.329 481.175 241.329C477.194 241.329 474.173 240.038 472.059 237.457C470.356 235.343 469.505 232.322 469.203 228.78H501.166C501.495 223.618 500.864 219.142 499.326 215.38C497.816 211.618 495.509 208.734 492.406 206.702C489.303 204.643 485.569 203.627 481.175 203.627C476.782 203.627 473.267 204.561 470.109 206.455C466.924 208.35 464.452 211.014 462.667 214.501C460.91 217.961 460.031 222.052 460.031 226.775C460.031 231.224 460.91 235.151 462.722 238.528C464.535 241.878 467.061 244.514 470.274 246.409C473.514 248.276 477.303 249.21 481.587 249.21C485.871 249.21 489.578 248.166 492.983 246.052C496.388 243.91 498.942 240.917 500.617 237.045L492.434 234.437C491.363 236.661 489.88 238.363 487.958 239.544L487.93 239.572ZM472.059 214.995C474.173 212.359 477.303 211.041 481.505 211.041C485.294 211.041 488.095 212.249 489.935 214.638C491.335 216.451 492.214 219.004 492.598 222.272H469.395C469.862 219.361 470.603 216.808 472.059 214.995Z" fill="black"/>
<path d="M434.137 248.001V198.3H414.998V190.419H461.652V198.3H442.512V248.001H434.165H434.137Z" fill="black"/>
<path d="M387.427 204.835L375.235 237.292L362.467 204.835H353.762L371.226 247.837L364.114 267.196H372.077L395.885 204.835H387.427Z" fill="black"/>
<path d="M348.902 214.748C347.31 211.315 345.03 208.597 342.065 206.62C339.127 204.615 335.639 203.627 331.603 203.627C327.566 203.627 324.079 204.615 321.278 206.62C320.729 207.004 320.344 207.553 319.85 207.993V190.419H311.447V248.001H318.889V243.8C319.685 244.651 320.427 245.53 321.36 246.189C324.161 248.194 327.621 249.182 331.767 249.182C335.914 249.182 339.264 248.194 342.175 246.189C345.113 244.185 347.365 241.466 348.93 238.034C350.522 234.574 351.319 230.674 351.319 226.363C351.319 222.052 350.522 218.153 348.93 214.72L348.902 214.748ZM341.104 234.134C340.252 236.414 338.934 238.253 337.177 239.599C335.447 240.944 333.25 241.631 330.587 241.631C327.923 241.631 325.589 240.972 323.859 239.681C322.129 238.363 320.866 236.578 320.07 234.272C319.273 231.993 318.861 229.329 318.861 226.363C318.861 223.398 319.273 220.734 320.07 218.455C320.893 216.176 322.157 214.363 323.832 213.1C325.534 211.81 327.703 211.178 330.312 211.178C333.085 211.178 335.365 211.865 337.149 213.21C338.934 214.583 340.252 216.395 341.104 218.675C341.982 220.954 342.422 223.535 342.422 226.363C342.422 229.192 341.982 231.8 341.104 234.107V234.134Z" fill="black"/>
<path d="M338.578 51.9676H311.174V38.9791H381.306V51.9676H353.901V121.633H338.551V51.9676H338.578Z" fill="black"/>
<path d="M444.655 90.4659C444.655 91.4819 444.573 92.9373 444.408 94.832H394.926C395.804 99.4726 398.028 103.18 401.653 105.926C405.36 108.589 409.918 109.935 415.355 109.935C422.275 109.935 427.987 107.656 432.463 103.097L440.371 112.186C437.543 115.564 433.946 118.118 429.634 119.848C425.296 121.578 420.436 122.456 414.999 122.456C408.079 122.456 401.983 121.083 396.71 118.337C391.438 115.591 387.347 111.775 384.436 106.887C381.608 101.917 380.18 96.3422 380.18 90.1089C380.18 83.8756 381.553 78.4661 384.299 73.5783C387.127 68.6081 391.026 64.7637 395.996 62.0178C400.967 59.2718 406.541 57.8988 412.774 57.8988C419.008 57.8988 424.39 59.2718 429.195 62.0178C434.083 64.6814 437.845 68.4982 440.536 73.4684C443.282 78.3562 444.655 84.0129 444.655 90.4659ZM412.774 69.6789C408.051 69.6789 404.042 71.1069 400.72 73.9352C397.479 76.6812 395.53 80.3882 394.816 85.0289H430.596C429.964 80.4706 428.042 76.7636 424.802 73.9352C421.561 71.1069 417.552 69.6789 412.747 69.6789H412.774Z" fill="black"/>
<path d="M473.268 67.7842C477.524 61.1665 484.993 57.8713 495.703 57.8713V71.9306C494.439 71.6835 493.314 71.5737 492.27 71.5737C486.531 71.5737 482.028 73.2762 478.815 76.6537C475.575 79.9489 473.982 84.7543 473.982 91.07V121.66H459.236V58.6127H473.296V67.8117L473.268 67.7842Z" fill="black"/>
<path d="M588.185 57.8713C596.148 57.8713 602.437 60.2054 607.077 64.8461C611.718 69.4044 614.052 76.2967 614.052 85.4957V121.633H599.306V87.3904C599.306 81.871 598.098 77.7521 595.654 75.0061C593.21 72.1778 589.723 70.7499 585.137 70.7499C580.167 70.7499 576.213 72.3975 573.22 75.7201C570.227 78.9603 568.744 83.601 568.744 89.6421V121.633H553.998V87.3904C553.998 81.871 552.79 77.7521 550.346 75.0061C547.902 72.1778 544.414 70.7499 539.829 70.7499C534.804 70.7499 530.767 72.37 527.774 75.5827C524.863 78.823 523.408 83.4912 523.408 89.6421V121.633H508.662V58.5853H522.721V66.6035C525.083 63.7751 528.049 61.6059 531.563 60.123C535.106 58.6402 539.032 57.8713 543.371 57.8713C548.094 57.8713 552.268 58.7775 555.893 60.5898C559.6 62.3198 562.51 64.9284 564.625 68.3883C567.233 65.0932 570.556 62.512 574.647 60.7272C578.739 58.8324 583.27 57.8988 588.213 57.8988L588.185 57.8713Z" fill="black"/>
<path d="M870.691 121.66L846.142 89.5598L869.647 58.8873H853.776L838.316 79.4272L822.966 58.8873H806.627L830.078 89.7519L805.584 121.66H821.785L838.069 99.9669L854.133 121.66H870.691Z" fill="black"/>
<path d="M787.791 64.7362C782.848 60.3426 775.846 58.1459 766.757 58.1459C761.732 58.1459 756.871 58.8049 752.176 60.1504C747.563 61.4135 743.554 63.3357 740.176 65.9169L745.942 76.6261C748.304 74.6765 751.16 73.1388 754.51 72.0404C757.97 70.942 761.457 70.3928 764.972 70.3928C770.217 70.3928 774.144 71.601 776.725 74.0449C779.306 76.4065 780.596 79.7291 780.596 84.0403V84.9739H764.368C758.025 84.9739 752.917 85.7977 749.1 87.4452C745.283 89.0928 742.482 91.3171 740.753 94.1454C739.105 96.9737 738.281 100.132 738.281 103.674C738.281 107.216 739.215 110.539 741.11 113.422C743.059 116.25 745.805 118.475 749.347 120.122C752.862 121.687 756.981 122.484 761.677 122.484C767.251 122.484 771.837 121.468 775.434 119.436C778.098 117.953 779.965 115.921 781.42 113.587V121.687H795.287V84.8915C795.287 75.8024 792.789 69.1022 787.764 64.7911L787.791 64.7362ZM774.391 109.303C771.562 110.951 768.35 111.775 764.752 111.775C761.155 111.775 758.052 110.978 755.938 109.413C753.823 107.848 752.753 105.733 752.753 103.07C752.753 100.708 753.604 98.7587 755.334 97.1935C757.064 95.5459 760.414 94.722 765.439 94.722H780.596V101.999C779.333 105.212 777.274 107.628 774.363 109.276L774.391 109.303Z" fill="black"/>
<path d="M721.942 121.633L721.833 39.3636H709.256L677.128 93.8983L644.479 39.3636H631.902V121.633H646.483V67.8392L673.531 112.241H680.341L707.389 67.1252L707.499 121.633H721.942Z" fill="black"/>
<path d="M144.409 137.339C111.375 200.332 78.3411 229.713 32.209 236.166L115.933 284.468C117.938 285.456 119.97 286.225 122.057 286.72C123.1 286.967 124.116 287.159 125.16 287.269C126.203 287.406 127.219 287.461 128.235 287.461C132.327 287.461 136.336 286.472 139.933 284.468L216.051 240.56L243.895 224.496C247.492 222.107 250.486 219.087 252.6 215.599C254.687 212.112 255.895 208.103 255.895 203.709V83.7656C255.895 82.8045 255.813 81.8434 255.703 80.9098C255.675 80.6352 255.648 80.3881 255.593 80.1135C255.456 79.2897 255.318 78.4659 255.099 77.6695C255.016 77.34 254.906 77.038 254.824 76.7359C254.659 76.2416 254.495 75.72 254.302 75.2257H250.595C199.63 79.3446 163.933 100.241 144.409 137.312V137.339Z" fill="black"/>
<path d="M6.72747 73.9352L2.25171 73.8802C2.16933 74.0449 2.08688 74.2098 2.0045 74.3745C1.97704 74.4569 1.92215 74.5393 1.86723 74.6217C1.51026 75.4454 1.20816 76.2967 0.96102 77.1754C0.878641 77.45 0.823675 77.7245 0.741296 77.9991C0.576538 78.6582 0.43934 79.3447 0.329502 80.0312C0.274583 80.3058 0.247157 80.5804 0.192237 80.8824C0.082399 81.8435 0 82.8046 0 83.7932V203.737C0 208.13 1.20809 212.332 3.29502 215.929C5.18973 219.169 7.82594 221.86 10.9289 223.837L21.8577 223.48C53.1343 221.283 87.4039 209.778 125.079 144.012C123.733 141.568 122.387 139.097 121.042 136.571C100.447 97.4131 61.9764 76.3516 6.70015 73.9626L6.72747 73.9352Z" fill="black"/>
<path d="M132.959 129.706C153.746 91.2346 191.558 68.0587 242.661 62.2647L139.934 3.00683C131.943 -1.00228 123.129 -1.00228 115.934 3.00683L15.7617 60.8094C70.9555 65.2853 111.321 88.9554 132.959 129.733V129.706Z" fill="black"/>
</svg>
