<?xml version="1.0" standalone="no"?>
<!DOCTYPE svg PUBLIC "-//W3C//DTD SVG 20010904//EN"
 "http://www.w3.org/TR/2001/REC-SVG-20010904/DTD/svg10.dtd">
<svg version="1.0" xmlns="http://www.w3.org/2000/svg"
 width="300.000000pt" height="300.000000pt" viewBox="0 0 300.000000 300.000000"
 preserveAspectRatio="xMidYMid meet">
<metadata>
Created by potrace 1.10, written by Peter Selinger 2001-2011
</metadata>
<g transform="translate(0.000000,300.000000) scale(0.100000,-0.100000)"
fill="#000000" stroke="none">
<path d="M1375 2990 c-120 -9 -215 -29 -351 -75 -524 -175 -903 -619 -1000
-1170 -21 -121 -21 -370 1 -495 81 -469 387 -878 810 -1085 205 -100 342 -139
552 -154 210 -16 404 9 597 76 374 130 668 386 845 734 114 223 163 430 163
684 0 170 -20 298 -72 455 -151 463 -498 809 -960 960 -190 62 -376 84 -585
70z m-179 -1072 c-9 -396 3 -648 31 -703 60 -114 188 -169 339 -145 119 19
186 71 220 172 17 48 18 94 17 516 l0 462 173 0 174 0 0 -250 0 -250 170 0
170 0 0 -90 0 -90 -170 0 -170 0 0 -40 0 -40 170 0 170 0 0 -90 0 -90 -172 -2
-173 -3 -7 -52 c-28 -192 -195 -360 -417 -418 -152 -39 -382 -28 -518 24 -86
34 -188 105 -237 164 -47 58 -94 160 -103 227 l-8 55 -173 3 -172 2 0 90 0 90
170 0 170 0 0 40 0 40 -170 0 -170 0 0 90 0 90 170 0 170 0 0 250 0 250 176 0
176 0 -6 -302z"/>
</g>
</svg>
